<svg xmlns="http://www.w3.org/2000/svg" width="98.15" height="62.405" viewBox="0 0 98.15 62.405">
  <g id="Group_9325" data-name="Group 9325" transform="translate(0)">
    <path id="Path_123" data-name="Path 123" d="M90.416,79.286a15.862,15.862,0,0,1,10.744-8.129A16.639,16.639,0,0,1,117.449,77.3a21.512,21.512,0,0,1,20.861-3.98,19.254,19.254,0,0,1,11.718,11.791C158.149,85,164.9,90.272,165.9,96.9c.835,5.483-2.39,11.093-8.121,13.972a11.764,11.764,0,0,1-3.968,9.251c-3.782,3.239-9.583,4.022-14.711,1.99a22,22,0,0,1-14.5,10.69,23.367,23.367,0,0,1-22.462-7.981,17.332,17.332,0,0,1-19.468.36,13.945,13.945,0,0,1-5.175-17.591c-6.149-3.048-9.978-8.7-9.583-14.331.534-7.515,4.571-14.776,19.515-14.141C88.42,79.159,89.418,79.222,90.416,79.286Z" transform="translate(-67.88 -70.85)" fill="#fff"/>
    <path id="Path_124" data-name="Path 124" d="M154.83,243.709a6.653,6.653,0,0,1-.139,1.415,2.168,2.168,0,0,1-.6,1.114,5.745,5.745,0,0,1-3.388,1.044,5.423,5.423,0,0,1-3.341-1.067,2.5,2.5,0,0,1-.673-1.137,4.689,4.689,0,0,1-.186-1.392V240.6h.116a2.98,2.98,0,0,1,1,.232,1.2,1.2,0,0,1,.673,1.23v1.3a2.5,2.5,0,0,0,.464,1.531,1.64,1.64,0,0,0,.882.534,4.126,4.126,0,0,0,1.091.162,3.31,3.31,0,0,0,1.067-.162,1.568,1.568,0,0,0,.789-.441,2.36,2.36,0,0,0,.534-1.694v-2.669h1.717v3.086Z" transform="translate(-128.259 -201.737)" fill="#0576bc"/>
    <path id="Path_125" data-name="Path 125" d="M147.253,231.1h7.193v1.671H146v-.278a1.484,1.484,0,0,1,.371-1.114A1.094,1.094,0,0,1,147.253,231.1Z" transform="translate(-127.874 -194.407)" fill="#0576bc"/>
    <path id="Path_126" data-name="Path 126" d="M156.835,207.591a2.616,2.616,0,0,1-.627-.951,3.547,3.547,0,0,1-.209-1.253,3.775,3.775,0,0,1,.209-1.276,2.727,2.727,0,0,1,1.6-1.6,4,4,0,0,1,2.552,0,3.054,3.054,0,0,1,.975.627,2.705,2.705,0,0,1,.627.975,3.139,3.139,0,0,1,.209,1.276,3.548,3.548,0,0,1-.209,1.253,2.435,2.435,0,0,1-.627.951,2.706,2.706,0,0,1-.975.626,3.681,3.681,0,0,1-1.276.209,3.59,3.59,0,0,1-1.276-.209A2.705,2.705,0,0,1,156.835,207.591Zm3.573-1.091a1.26,1.26,0,0,0,.58-1.114,1.29,1.29,0,0,0-.162-.7,2,2,0,0,0-.418-.464,1.914,1.914,0,0,0-.6-.232,3.541,3.541,0,0,0-.7-.07,3.372,3.372,0,0,0-.7.07,1.562,1.562,0,0,0-.6.232,1.416,1.416,0,0,0-.441.464,1.29,1.29,0,0,0-.162.7,1.207,1.207,0,0,0,.162.673,1.335,1.335,0,0,0,.441.441,1.562,1.562,0,0,0,.6.232,3.514,3.514,0,0,0,1.392,0A1.914,1.914,0,0,0,160.409,206.5Z" transform="translate(-135.554 -172.206)" fill="#0576bc"/>
    <path id="Path_127" data-name="Path 127" d="M162.372,179.377a4.485,4.485,0,0,1-.557,2.2,1.514,1.514,0,0,1-.882.487,4.774,4.774,0,0,1-1.021.093H156.2v-1.648h3.411a1.8,1.8,0,0,0,1-.232.992.992,0,0,0,.371-.882,1.151,1.151,0,0,0-.371-.975,1.519,1.519,0,0,0-.928-.278h-2.3a.965.965,0,0,1-1-.58,3.131,3.131,0,0,1-.186-1.067h3.713a3.22,3.22,0,0,1,1,.139,1.907,1.907,0,0,1,.882.534A4.137,4.137,0,0,1,162.372,179.377Z" transform="translate(-135.708 -152.312)" fill="#0576bc"/>
    <path id="Path_128" data-name="Path 128" d="M146,149.921a.931.931,0,0,1,.371-.835,1.428,1.428,0,0,1,.882-.186s4.154,0,4.362.023a4.351,4.351,0,0,1,1.439.3,2.5,2.5,0,0,1,1,.812,3.63,3.63,0,0,1,.487,1.764,3.463,3.463,0,0,1-.325,1.439,2.16,2.16,0,0,1-.557.766,2.714,2.714,0,0,1-.951.557,4.745,4.745,0,0,1-2.785,0,2.519,2.519,0,0,1-.951-.557,2.16,2.16,0,0,1-.557-.766,2.4,2.4,0,0,1-.186-.882,2.793,2.793,0,0,1,.209-1.044,2.44,2.44,0,0,1,.51-.789H146Zm5.337,3.225a1.929,1.929,0,0,0,.6-.07,1.755,1.755,0,0,0,.6-.255,1.432,1.432,0,0,0,.418-.418,1.05,1.05,0,0,0,.162-.627,1.022,1.022,0,0,0-.162-.6,1.088,1.088,0,0,0-.418-.441,2.055,2.055,0,0,0-.6-.255,3.01,3.01,0,0,0-.6-.07h-.046a1.874,1.874,0,0,0-.441.07,1.97,1.97,0,0,0-.6.255,1.268,1.268,0,0,0-.418.441,1.023,1.023,0,0,0-.162.6,1.149,1.149,0,0,0,.162.627,1.034,1.034,0,0,0,.418.418,2.055,2.055,0,0,0,.6.255,1.716,1.716,0,0,0,.418.07Z" transform="translate(-127.874 -131.031)" fill="#0576bc"/>
    <path id="Path_129" data-name="Path 129" d="M200.039,156.527v1.183a2.908,2.908,0,0,1-.65,1.88,3.294,3.294,0,0,1-2.158.789h-1.439v9.746a3.053,3.053,0,0,0,.464,1.9c.325.325.975.348,1.9.348h1.88v4.5h-3.411a13.5,13.5,0,0,1-2.436-.186,5.821,5.821,0,0,1-2.088-.673,3.906,3.906,0,0,1-1.392-1.485,5.278,5.278,0,0,1-.51-2.483V148.8h2.088a3.546,3.546,0,0,1,2.808,1.183,3.161,3.161,0,0,1,.719,2.019v4.525Z" transform="translate(-161.818 -130.966)" fill="#0576bc"/>
    <path id="Path_130" data-name="Path 130" d="M253.581,200.5a9.153,9.153,0,0,1-2.6,1.091,15.636,15.636,0,0,1-3.411.441h-.464c-3.666,0-6.474-1.555-7.4-2.831a4.158,4.158,0,0,1-.789-2.761s-.116-2.019-.116-4.246a29.052,29.052,0,0,1,.278-4.641,7.54,7.54,0,0,1,2.808-4.571,10.822,10.822,0,0,1,6.288-1.88,11.832,11.832,0,0,1,4.525.766,6.465,6.465,0,0,1,2.088,1.3,5.879,5.879,0,0,1,1.253,1.787,6.034,6.034,0,0,1,.51,2.506,6.773,6.773,0,0,1-.58,2.668,5.554,5.554,0,0,1-3.411,3.156c-.046,0-.07.046-.116.046a11.645,11.645,0,0,1-2.344.464c-.789.139-1.555.255-2.3.325a7.927,7.927,0,0,0-1.833.255,3.018,3.018,0,0,0-1.369.65,1.223,1.223,0,0,0-.534.928,2.433,2.433,0,0,0,.255,1.16c.51.789,2.042,1,3.6,1a3.877,3.877,0,0,0,2.413-.65,2.362,2.362,0,0,0,1.044-1.787H256.6a6.971,6.971,0,0,1-.9,2.831A6.678,6.678,0,0,1,253.581,200.5Zm-7.518-10.14c.371-.07.766-.139,1.183-.186.395-.046.835-.116,1.23-.186s.789-.186,1.183-.278a2.6,2.6,0,0,0,.975-.51,2.4,2.4,0,0,0,.928-1.833v-.186a2.185,2.185,0,0,0-.255-1,2.015,2.015,0,0,0-.673-.719,2.8,2.8,0,0,0-1.044-.394,6.913,6.913,0,0,0-1.23-.116,4.584,4.584,0,0,0-2.367.534,3.357,3.357,0,0,0-1.253,1.23,4.468,4.468,0,0,0-.511,1.439q-.07.766-.07,1.183v1.717a2.584,2.584,0,0,1,.835-.441A10.35,10.35,0,0,1,246.063,190.358Z" transform="translate(-199.142 -155.871)" fill="#0576bc"/>
    <path id="Path_131" data-name="Path 131" d="M328.792,152.2v11.579l7.054-7.309h6.613l-7.657,7.472,8.516,12.832h-2.344a8.081,8.081,0,0,1-4.061-1.114,7.778,7.778,0,0,1-2.413-2.2l-3.527-5.755-2.2,2.088v6.984H323.2V148.7h1.114a4.631,4.631,0,0,1,3.318.975A3.475,3.475,0,0,1,328.792,152.2Z" transform="translate(-263.956 -130.889)" fill="#0576bc"/>
  </g>
</svg>
